<?xml version="1.0" standalone="no"?>
<!DOCTYPE svg PUBLIC "-//W3C//DTD SVG 20010904//EN"
 "http://www.w3.org/TR/2001/REC-SVG-20010904/DTD/svg10.dtd">
<svg version="1.0" xmlns="http://www.w3.org/2000/svg"
 width="500.000000pt" height="500.000000pt" viewBox="0 0 500.000000 500.000000"
 preserveAspectRatio="xMidYMid meet">

<g transform="translate(0.000000,500.000000) scale(0.100000,-0.100000)"
fill="#000000" stroke="none">
<path d="M865 4984 c-45 -7 -121 -27 -170 -44 -335 -117 -576 -378 -668 -723
l-22 -82 0 -1630 c0 -1815 -5 -1679 69 -1861 135 -332 438 -571 800 -629 136
-22 3116 -22 3252 0 416 67 743 365 846 771 l23 89 0 1625 0 1625 -23 89
c-103 406 -430 704 -846 771 -129 21 -3136 21 -3261 -1z m2193 -1351 c-3 -175
-5 -191 -27 -237 -33 -66 -91 -122 -160 -155 l-56 -26 -550 -5 c-527 -5 -551
-6 -584 -25 -59 -35 -94 -88 -99 -150 -8 -94 36 -172 117 -208 17 -8 156 -14
401 -18 400 -6 414 -7 552 -63 90 -37 164 -85 245 -160 123 -114 192 -225 239
-383 35 -117 37 -287 5 -407 -75 -284 -300 -505 -596 -588 -79 -22 -90 -23
-808 -26 l-729 -3 4 188 c3 166 6 193 25 235 45 98 134 167 243 188 31 6 269
10 577 10 499 0 526 1 562 19 50 26 97 81 112 132 23 75 -15 165 -89 211 -36
23 -42 23 -412 29 -419 7 -457 12 -609 84 -322 153 -515 490 -472 824 45 353
320 639 682 710 24 5 356 9 737 10 l694 1 -4 -187z m765 149 c256 -124 313
-448 113 -648 -203 -203 -545 -146 -672 112 -112 226 1 478 251 561 25 8 77
12 140 10 89 -3 107 -6 168 -35z m135 -1669 l-3 -698 -28 -57 c-30 -62 -83
-115 -149 -150 -40 -21 -57 -23 -251 -26 l-208 -3 3 703 3 703 27 51 c33 63
114 137 171 157 31 12 91 16 240 16 l198 1 -3 -697z"/>
</g>
</svg>
